<svg width="32" height="32" viewBox="0 0 32 32" fill="none" xmlns="http://www.w3.org/2000/svg">
<rect width="32" height="32" rx="10" fill="white"/>
<path d="M10.6665 12.0002C10.2255 11.9987 9.80204 12.1602 9.48947 12.4488C9.17678 12.7375 9.00071 13.1298 9 13.5391C8.99938 13.9484 9.17411 14.3412 9.48567 14.6308L14.7891 19.5482C15.1021 19.8389 15.5274 20.0012 15.97 19.999L16.0246 19.999L16.0247 19.999C16.4835 20.0141 16.9283 19.8512 17.2527 19.5497L22.5427 14.6293C22.9448 14.2369 23.0955 13.6773 22.9396 13.1554C22.7838 12.6335 22.3443 12.2258 21.7819 12.0814C21.2197 11.9371 20.6169 12.0773 20.1944 12.4508L16.0172 16.3284L11.84 12.4508C11.5289 12.1619 11.1067 11.9997 10.6666 12L10.6665 12.0002Z" fill="#18BCC1"/>
</svg>
