<svg width="125" height="46" viewBox="0 0 125 46" fill="none" xmlns="http://www.w3.org/2000/svg">
<path d="M37.3796 36.1847L29.3076 22.5582L37.3796 8.93173L41.2709 22.5582L37.3796 36.1847ZM19.4144 34.855L9.27231 24.7599H25.4163L33.4883 38.3863L19.4144 34.855ZM19.4144 10.2197L33.4472 6.68837L25.3752 20.3148H9.23121L19.4144 10.2197ZM40.029 0L21.6908 4.77767L18.9587 9.47195L13.4535 9.43025L0 22.5582L13.4535 35.6861L18.9587 35.6444L21.6908 40.3387L40.029 45.1581L44.9549 27.2525L42.1813 22.5999L44.9549 17.9468L40.029 0ZM81.672 13.2526C79.2299 13.2526 77.5739 14.2909 76.3321 16.202H76.2494V13.7511H71.9445V31.7809H76.3321V21.5611C76.3321 19.1102 77.8638 17.4066 79.975 17.4066C81.9619 17.4066 83.4521 18.6117 83.4521 20.7304V31.8226H87.8401V20.0239C87.8812 16.0774 85.3975 13.2526 81.672 13.2526ZM65.2796 24.1784C65.2796 26.5881 63.9136 28.2495 61.6783 28.2495C59.6502 28.2495 58.3668 27.0866 58.3668 24.9679V13.7511H53.9788V25.7986C53.9788 29.7451 56.2141 32.3211 60.2296 32.3211C62.7548 32.3211 64.162 31.3653 65.3627 29.7038H65.4869V31.8226H69.7092V13.7511H65.3212V24.1784H65.2796ZM90.1997 13.7511H94.5872V31.7809H90.1997V13.7511ZM90.1997 8.1427H94.5872V11.757H90.1997V8.1427ZM119.466 13.7511L116.858 21.8933C116.278 23.5552 115.823 25.8403 115.823 25.8403H115.699C115.699 25.8403 115.119 23.5552 114.54 21.8933L111.601 13.7511H106.882L111.725 26.5881C112.76 29.33 113.091 30.4929 113.091 31.4899C113.091 32.9855 112.305 33.9413 110.442 33.9413H108.744V37.7215H111.559C115.202 37.7215 116.485 36.2676 117.851 32.2794L124.185 13.7923H119.466V13.7511ZM102.783 26.5047V16.9498H105.599V13.7923H102.783V8.1427H98.3959V13.7511H95.9122V16.9081H98.3959V27.5017C98.3959 30.9085 100.962 31.8226 103.28 31.8226C105.184 31.8226 105.681 31.7392 105.681 31.7392V28.2495H104.564C103.529 28.2912 102.783 27.8344 102.783 26.5047Z" fill="white"/>
</svg>
