<svg id="finmag_logo_h" xmlns="http://www.w3.org/2000/svg" width="798.862" height="292.222" viewBox="0 0 798.862 292.222">
  <path id="Path_1" data-name="Path 1" d="M61.237,117.96H71.964V81.5h28.884V71.8H71.964V48.67h37.461V38.965H61.237Zm56.087-67.71H127.48V38.97H117.324Zm0,67.71H127.48v-55.3H117.324Zm51.234-56.425a30.571,30.571,0,0,0-10.412,1.918,24.06,24.06,0,0,0-7.876,5.066l-1.123-5.862h-7.894v55.3H151.4V77.839a11.691,11.691,0,0,1,4.882-4.823,21.566,21.566,0,0,1,10.24-2.453q7.9,0,11.172,4.063t3.273,12.865v30.47h10.157V87.49q0-11.965-5.221-18.959t-17.349-7m95.193-22.57L244.109,76.092,224.247,38.965H213.413l-10.834,79H216.24l7-55.356,20.871,37.977,20.717-38,6.991,55.374h13.655l-10.78-79Zm75.467,69.065a4.322,4.322,0,0,1-1.556-2.934,37.351,37.351,0,0,1-.4-6.266V85.061q0-8.856-2.281-14.16a14.787,14.787,0,0,0-6.741-7.62,23.816,23.816,0,0,0-11.059-2.316,38.86,38.86,0,0,0-10.359,1.39,42.582,42.582,0,0,0-9.5,3.861l1.295,10.275a38.184,38.184,0,0,1,8.066-3.558,25.8,25.8,0,0,1,7.11-1.016q5.533,0,8.1,2.287t2.738,8.262a60.994,60.994,0,0,0-7.876.683,54.932,54.932,0,0,0-8.577,1.942,33.182,33.182,0,0,0-7.84,3.582,18.111,18.111,0,0,0-5.755,5.672,14.854,14.854,0,0,0-2.174,8.149,17.159,17.159,0,0,0,2.174,8.808,14.952,14.952,0,0,0,5.951,5.755,17.708,17.708,0,0,0,8.517,2.025,24.605,24.605,0,0,0,9.675-1.913,20.182,20.182,0,0,0,7.424-5.191,14.611,14.611,0,0,0,2.732,3.778,10.914,10.914,0,0,0,4.152,2.459,19.886,19.886,0,0,0,6.379.867h3.5l1.348-10.263h-1.52a6.27,6.27,0,0,1-3.522-.79m-14.534-4.009a15.433,15.433,0,0,1-5.417,3.92,14.51,14.51,0,0,1-5.809,1.384q-3.9,0-5.9-1.806t-2-5.583a7.761,7.761,0,0,1,2.506-5.951,16.26,16.26,0,0,1,6.86-3.558,40.8,40.8,0,0,1,9.759-1.384Zm72.023,13.091q-5.043-3.893-14.077-5.132l-11.564-1.693a19.651,19.651,0,0,1-5.417-1.408,2.552,2.552,0,0,1-1.693-2.263,2.233,2.233,0,0,1,1.693-2.2,30.84,30.84,0,0,0,3.19.618,23.522,23.522,0,0,0,3.356.226,23.916,23.916,0,0,0,12.384-3.017,20.022,20.022,0,0,0,7.757-8.072,23.783,23.783,0,0,0,2.655-11.249A22.883,22.883,0,0,0,394,76.205a19.583,19.583,0,0,0-2.9-5.922A17.77,17.77,0,0,1,393.606,70c.843-.036,1.437-.059,1.782-.059h4.175l1.063-8.066h-2.649a30.844,30.844,0,0,0-7.359.814,20.382,20.382,0,0,0-5.34,2.008,20.849,20.849,0,0,0-5.945-2.881,24.371,24.371,0,0,0-7.139-1.016,24,24,0,0,0-12.437,3.023,20.371,20.371,0,0,0-7.793,8.036,23.128,23.128,0,0,0-2.679,11.065A23.939,23.939,0,0,0,351.6,93.471a19.42,19.42,0,0,0,6.706,7.781,10.907,10.907,0,0,0-4.425,3.273,7.525,7.525,0,0,0-1.55,4.686,7.392,7.392,0,0,0,1.384,4.377,11.4,11.4,0,0,0,3.754,3.3,18.867,18.867,0,0,0-6.884,5.559,12.475,12.475,0,0,0-2.435,7.591,12.65,12.65,0,0,0,3.332,8.832,21.024,21.024,0,0,0,9.23,5.553,49.9,49.9,0,0,0,28.349-.279,20.657,20.657,0,0,0,9.426-6.26,15.015,15.015,0,0,0,3.273-9.705q0-7.172-5.055-11.065M363.754,73.859q2.86-3.466,8.44-3.469,5.524,0,8.375,3.469a13.881,13.881,0,0,1,2.851,9.111q0,5.764-2.851,9.26t-8.375,3.5q-5.586,0-8.44-3.5a14.237,14.237,0,0,1-2.845-9.26,13.944,13.944,0,0,1,2.845-9.111M386.3,134.43q-3.84,1.862-11.226,1.865t-11.683-2.061q-4.294-2.058-4.288-6.4a6.867,6.867,0,0,1,2.031-5.072,14.649,14.649,0,0,1,4.906-3.219l13.6,2.085a22.482,22.482,0,0,1,7.923,2.512,5.277,5.277,0,0,1,2.572,4.769q0,3.662-3.837,5.524m21.162-16.47h12.188V105.992H407.463Zm37.009-67.71q0-4.232,1.865-6.07a7.014,7.014,0,0,1,5.132-1.829,16.021,16.021,0,0,1,2.993.249,17.565,17.565,0,0,1,2.649.76l1.586-8.571a21.706,21.706,0,0,0-3.873-1.075,27.336,27.336,0,0,0-4.936-.392q-7.671,0-11.624,4.425t-3.95,11.82V62.657h-8.232l-1.36,7.905h9.592v47.4h10.157v-47.4h14.9V62.657h-14.9Zm49.316,11.285a14.906,14.906,0,0,0-8.268,2.512,36.243,36.243,0,0,0-8.1,7.757l-1.241-9.147h-8.351v55.3h10.834V78.914a13.7,13.7,0,0,1,5.221-4.259,17.054,17.054,0,0,1,8.1-1.948c.677,0,1.289.03,1.835.083a13.214,13.214,0,0,1,1.55.249l1.016-11.166a9.432,9.432,0,0,0-2.6-.339" transform="translate(302.478 81.516)" fill="#37474f"/>
  <path id="Path_2" data-name="Path 2" d="M25.561,19.158l.018-.083A138.923,138.923,0,0,1,147.523,53.8a8.094,8.094,0,0,1,.849,11.036L58.816,175.189a8.173,8.173,0,0,1-10.436,2L36.9,170.734l-.63-.368a94.538,94.538,0,0,0,14.314-16.512,96.878,96.878,0,0,0-25.023-134.7" transform="translate(126.256 -2.061)" fill="#05bfa5"/>
  <path id="Path_3" data-name="Path 3" d="M167.6,209.085A139.021,139.021,0,0,1,7.081,95.747a97.485,97.485,0,0,0,23.277,11.8,97.481,97.481,0,0,0,70.354-2.833l.523.475L141.023,140.2a8.329,8.329,0,0,0,11.059-.107L265.711,35.372a8.052,8.052,0,0,1,13.281,4.045q1.1,4.517,1.895,9.147A138.941,138.941,0,0,1,167.6,209.085" transform="translate(34.974 81.105)" fill="#05bfa5"/>
  <path id="Path_4" data-name="Path 4" d="M151.806,31.013A96.937,96.937,0,0,0,42.085,190.852,144.056,144.056,0,0,1,40.1,167.26,138.916,138.916,0,0,1,151.824,31.007Z" transform="translate(0 -13.987)" fill="#ffe082"/>
  <path id="Path_5" data-name="Path 5" d="M158.774,95.477a97.012,97.012,0,0,1-31.456,71.66L68.291,133.953c-8.648-4.87-16.934,6.872-9.485,13.423l42.04,37.009a96.693,96.693,0,0,1-92.1-7.656,148.081,148.081,0,0,1-2-23.586A138.552,138.552,0,0,1,50.259,52.178a112.507,112.507,0,0,1,8.862-7.709C62.156,42,65.357,39.7,68.606,37.5a128.709,128.709,0,0,1,15.467-8.909,139.6,139.6,0,0,1,34.336-11.742h.053a.052.052,0,0,1,.053.053,20.049,20.049,0,0,1,2.1,1.568,96.4,96.4,0,0,1,38.161,77.012" transform="translate(33.319 0.122)" fill="#05bfa5"/>
  <path id="Path_6" data-name="Path 6" d="M160.711,95.951a96.53,96.53,0,0,1-30.88,72.6l-.63-.368-1.883-1.045L68.292,133.958c-8.654-4.876-16.934,6.866-9.491,13.417l42.046,37.015,1.521,1.307.523.475a98.273,98.273,0,0,1-94.153-9.438,148.09,148.09,0,0,1-1.99-23.592A138.567,138.567,0,0,1,50.254,52.177a112.431,112.431,0,0,1,8.862-7.7c3.041-2.465,6.236-4.769,9.491-6.973a129.01,129.01,0,0,1,15.461-8.915A140.022,140.022,0,0,1,118.4,16.843h.053a.052.052,0,0,1,.053.053,93.083,93.083,0,0,1,42.2,79.055" transform="translate(33.324 0.117)" fill="#05a854"/>
</svg>
