<svg width="181" height="30" viewBox="0 0 181 30" fill="none" xmlns="http://www.w3.org/2000/svg">
<g clip-path="url(#clip0_111_410)">
<path d="M91.7696 0.705651L95.5635 8.39328L104.046 9.62578C105.086 9.77726 105.503 11.0545 104.749 11.7878L98.6103 17.7713L100.06 26.2198C100.239 27.256 99.1508 28.0444 98.2213 27.5555L90.6335 23.5654L83.0457 27.5555C82.1161 28.0444 81.0282 27.256 81.2073 26.2198L82.6567 17.7713L76.5183 11.7878C75.7643 11.0545 76.1809 9.77726 77.2206 9.62578L85.7035 8.39328L89.4974 0.705651C89.9621 -0.237658 91.3048 -0.237658 91.7696 0.705651Z" fill="url(#paint0_linear_111_410)"/>
<path d="M98.8098 26.7156C98.7651 26.7156 98.7238 26.7053 98.679 26.6812L90.6334 22.4501L82.5877 26.6812C82.5429 26.7053 82.4982 26.7156 82.4569 26.7156C82.3777 26.7156 82.2916 26.6743 82.2365 26.6089C82.1814 26.5435 82.1642 26.4712 82.178 26.3851L83.7135 17.4271L77.2067 11.0822C77.1034 10.9823 77.1103 10.8687 77.1344 10.793C77.1585 10.7172 77.2205 10.6208 77.3616 10.6002L86.3575 9.29194L90.3786 1.14299C90.444 1.01216 90.5507 0.984619 90.6334 0.984619C90.716 0.984619 90.8227 1.01216 90.8881 1.14299L94.9092 9.29194L103.905 10.6002C104.05 10.6208 104.108 10.7172 104.132 10.793C104.156 10.8687 104.163 10.9823 104.06 11.0822L97.5498 17.4271L99.0853 26.3851C99.099 26.4746 99.0818 26.5469 99.0267 26.6089C98.9717 26.6743 98.8856 26.7156 98.8064 26.7156H98.8098Z" fill="url(#paint1_linear_111_410)"/>
<path d="M82.6565 17.7714L76.5181 11.7879C76.2186 11.4953 76.1084 11.1166 76.1428 10.7585C76.1394 10.7585 76.1325 10.7585 76.1325 10.7585C76.1222 10.7654 76.1325 13.0548 76.1325 13.0548C76.1325 13.0548 76.1394 13.0548 76.1428 13.0548C76.1084 13.4129 76.2186 13.7882 76.5181 14.0808L82.3191 19.7338L82.6565 17.7645V17.7714Z" fill="url(#paint2_linear_111_410)"/>
<path d="M100.07 26.5676C99.9837 27.418 99.0404 27.986 98.221 27.5557L90.6333 23.5656L83.0455 27.5557C82.233 27.9826 81.3 27.4317 81.1967 26.5952V28.6195C81.1038 29.6041 82.1469 30.3271 83.0455 29.852L90.4542 25.9548L90.6746 25.886L98.2176 29.852C99.1162 30.3236 100.156 29.6041 100.066 28.6195V26.5676H100.07Z" fill="url(#paint3_linear_111_410)"/>
<path d="M105.12 10.7585C105.158 11.1166 105.045 11.4953 104.745 11.7879L98.6067 17.7714L98.9441 19.7406L104.745 14.0877C105.041 13.7985 105.155 13.4232 105.12 13.0686L105.127 13.0617V10.7654H105.117L105.12 10.7585Z" fill="url(#paint4_linear_111_410)"/>
<path style="mix-blend-mode:screen" d="M104.132 10.793C104.108 10.7172 104.046 10.6208 103.905 10.6002L94.9093 9.29194L90.8847 1.14299C90.8193 1.01216 90.7126 0.984619 90.6299 0.984619C90.5473 0.984619 90.4406 1.01216 90.3752 1.14299L86.3541 9.29194L77.3582 10.6002C77.2136 10.6208 77.1551 10.7172 77.131 10.793C77.1069 10.8687 77.1 10.9823 77.2033 11.0822L79.3309 13.1547C82.8321 11.5091 87.5211 11.2509 92.1964 12.7829C94.6924 13.6022 96.8923 14.8347 98.6791 16.3254L104.057 11.0822C104.16 10.9823 104.153 10.8687 104.129 10.793H104.132Z" fill="url(#paint5_radial_111_410)"/>
<path d="M104.06 11.0822C104.163 10.9823 104.156 10.8687 104.132 10.793C104.108 10.7172 104.046 10.6208 103.905 10.6002L94.9093 9.29194L90.8847 1.14299C90.8193 1.01216 90.7126 0.984619 90.6299 0.984619C90.5473 0.984619 90.4406 1.01216 90.3752 1.14299L86.3541 9.29194L77.3582 10.6002C77.2136 10.6208 77.1551 10.7172 77.131 10.793C77.1069 10.8687 77.1 10.9823 77.2033 11.0822L83.7135 17.4271L82.178 26.3851C82.1642 26.4746 82.1815 26.5469 82.2365 26.6089C82.2916 26.6743 82.3777 26.7156 82.4569 26.7156C82.5016 26.7156 82.5429 26.7053 82.5877 26.6812L90.6334 22.4501L98.6791 26.6812C98.7238 26.7053 98.7686 26.7156 98.8099 26.7156C98.8891 26.7156 98.9751 26.6743 99.0302 26.6089C99.0853 26.5435 99.1025 26.4712 99.0887 26.3851L97.5533 17.4271L104.063 11.0822H104.06ZM98.8409 26.4505C98.8409 26.4505 98.8133 26.4712 98.8099 26.4712L90.6334 22.1747L82.4569 26.4712C82.4569 26.4712 82.4362 26.4643 82.4225 26.4264L83.982 17.3411L77.3754 10.9066C77.3754 10.9066 77.3582 10.8894 77.3651 10.8687C77.372 10.8481 77.3754 10.8481 77.3961 10.8446L86.5193 9.51916L90.5989 1.24971C90.6093 1.2325 90.6093 1.22905 90.6299 1.22905C90.6506 1.22905 90.654 1.22905 90.6609 1.24971L94.7406 9.51572L103.864 10.8412C103.884 10.8412 103.884 10.8412 103.895 10.8653C103.902 10.8859 103.898 10.8894 103.884 10.9031L97.2847 17.3376L98.8409 26.4471V26.4505Z" fill="url(#paint6_linear_111_410)"/>
</g>
<g clip-path="url(#clip1_111_410)">
<path d="M129.834 0.705651L133.628 8.39328L142.111 9.62578C143.151 9.77726 143.567 11.0545 142.813 11.7878L136.675 17.7713L138.124 26.2198C138.303 27.256 137.216 28.0444 136.286 27.5555L128.698 23.5654L121.11 27.5555C120.181 28.0444 119.093 27.256 119.272 26.2198L120.721 17.7713L114.583 11.7878C113.829 11.0545 114.246 9.77726 115.285 9.62578L123.768 8.39328L127.562 0.705651C128.027 -0.237658 129.37 -0.237658 129.834 0.705651Z" fill="url(#paint7_linear_111_410)"/>
<path d="M136.875 26.7156C136.83 26.7156 136.788 26.7053 136.744 26.6812L128.698 22.4501L120.652 26.6812C120.608 26.7053 120.563 26.7156 120.522 26.7156C120.442 26.7156 120.356 26.6743 120.301 26.6089C120.246 26.5435 120.229 26.4712 120.243 26.3851L121.778 17.4271L115.271 11.0822C115.168 10.9823 115.175 10.8687 115.199 10.793C115.223 10.7172 115.285 10.6208 115.426 10.6002L124.422 9.29194L128.443 1.14299C128.509 1.01216 128.615 0.984619 128.698 0.984619C128.781 0.984619 128.887 1.01216 128.953 1.14299L132.974 9.29194L141.97 10.6002C142.114 10.6208 142.173 10.7172 142.197 10.793C142.221 10.8687 142.228 10.9823 142.125 11.0822L135.615 17.4271L137.15 26.3851C137.164 26.4746 137.147 26.5469 137.091 26.6089C137.036 26.6743 136.95 26.7156 136.871 26.7156H136.875Z" fill="url(#paint8_linear_111_410)"/>
<path d="M120.721 17.7714L114.583 11.7879C114.283 11.4953 114.173 11.1166 114.208 10.7585C114.204 10.7585 114.197 10.7585 114.197 10.7585C114.187 10.7654 114.197 13.0548 114.197 13.0548C114.197 13.0548 114.204 13.0548 114.208 13.0548C114.173 13.4129 114.283 13.7882 114.583 14.0808L120.384 19.7338L120.721 17.7645V17.7714Z" fill="url(#paint9_linear_111_410)"/>
<path d="M138.134 26.5676C138.048 27.418 137.105 27.986 136.286 27.5557L128.698 23.5656L121.11 27.5557C120.298 27.9826 119.365 27.4317 119.261 26.5952V28.6195C119.168 29.6041 120.212 30.3271 121.11 29.852L128.519 25.9548L128.739 25.886L136.282 29.852C137.181 30.3236 138.221 29.6041 138.131 28.6195V26.5676H138.134Z" fill="url(#paint10_linear_111_410)"/>
<path d="M143.185 10.7585C143.223 11.1166 143.109 11.4953 142.81 11.7879L136.671 17.7714L137.009 19.7406L142.81 14.0877C143.106 13.7985 143.219 13.4232 143.185 13.0686L143.192 13.0617V10.7654H143.182L143.185 10.7585Z" fill="url(#paint11_linear_111_410)"/>
<path style="mix-blend-mode:screen" d="M142.197 10.793C142.173 10.7172 142.111 10.6208 141.97 10.6002L132.974 9.29194L128.949 1.14299C128.884 1.01216 128.777 0.984619 128.695 0.984619C128.612 0.984619 128.505 1.01216 128.44 1.14299L124.419 9.29194L115.423 10.6002C115.278 10.6208 115.22 10.7172 115.196 10.793C115.172 10.8687 115.165 10.9823 115.268 11.0822L117.396 13.1547C120.897 11.5091 125.586 11.2509 130.261 12.7829C132.757 13.6022 134.957 14.8347 136.744 16.3254L142.121 11.0822C142.225 10.9823 142.218 10.8687 142.194 10.793H142.197Z" fill="url(#paint12_radial_111_410)"/>
<path d="M142.125 11.0822C142.228 10.9823 142.221 10.8687 142.197 10.793C142.173 10.7172 142.111 10.6208 141.97 10.6002L132.974 9.29194L128.949 1.14299C128.884 1.01216 128.777 0.984619 128.695 0.984619C128.612 0.984619 128.505 1.01216 128.44 1.14299L124.419 9.29194L115.423 10.6002C115.278 10.6208 115.22 10.7172 115.196 10.793C115.172 10.8687 115.165 10.9823 115.268 11.0822L121.778 17.4271L120.243 26.3851C120.229 26.4746 120.246 26.5469 120.301 26.6089C120.356 26.6743 120.442 26.7156 120.522 26.7156C120.566 26.7156 120.608 26.7053 120.652 26.6812L128.698 22.4501L136.744 26.6812C136.789 26.7053 136.833 26.7156 136.875 26.7156C136.954 26.7156 137.04 26.6743 137.095 26.6089C137.15 26.5435 137.167 26.4712 137.153 26.3851L135.618 17.4271L142.128 11.0822H142.125ZM136.906 26.4505C136.906 26.4505 136.878 26.4712 136.875 26.4712L128.698 22.1747L120.522 26.4712C120.522 26.4712 120.501 26.4643 120.487 26.4264L122.047 17.3411L115.44 10.9066C115.44 10.9066 115.423 10.8894 115.43 10.8687C115.437 10.8481 115.44 10.8481 115.461 10.8446L124.584 9.51916L128.664 1.24971C128.674 1.2325 128.674 1.22905 128.695 1.22905C128.715 1.22905 128.719 1.22905 128.726 1.24971L132.805 9.51572L141.929 10.8412C141.949 10.8412 141.949 10.8412 141.959 10.8653C141.966 10.8859 141.963 10.8894 141.949 10.9031L135.349 17.3376L136.906 26.4471V26.4505Z" fill="url(#paint13_linear_111_410)"/>
</g>
<g clip-path="url(#clip2_111_410)">
<path d="M166.899 0.705651L170.693 8.39328L179.176 9.62578C180.215 9.77726 180.632 11.0545 179.878 11.7878L173.74 17.7713L175.189 26.2198C175.368 27.256 174.28 28.0444 173.351 27.5555L165.763 23.5654L158.175 27.5555C157.246 28.0444 156.158 27.256 156.337 26.2198L157.786 17.7713L151.648 11.7878C150.894 11.0545 151.31 9.77726 152.35 9.62578L160.833 8.39328L164.627 0.705651C165.092 -0.237658 166.434 -0.237658 166.899 0.705651Z" fill="url(#paint14_linear_111_410)"/>
<path d="M173.939 26.7156C173.894 26.7156 173.853 26.7053 173.808 26.6812L165.763 22.4501L157.717 26.6812C157.672 26.7053 157.628 26.7156 157.586 26.7156C157.507 26.7156 157.421 26.6743 157.366 26.6089C157.311 26.5435 157.294 26.4712 157.307 26.3851L158.843 17.4271L152.336 11.0822C152.233 10.9823 152.24 10.8687 152.264 10.793C152.288 10.7172 152.35 10.6208 152.491 10.6002L161.487 9.29194L165.508 1.14299C165.573 1.01216 165.68 0.984619 165.763 0.984619C165.845 0.984619 165.952 1.01216 166.018 1.14299L170.039 9.29194L179.034 10.6002C179.179 10.6208 179.238 10.7172 179.262 10.793C179.286 10.8687 179.293 10.9823 179.189 11.0822L172.679 17.4271L174.215 26.3851C174.228 26.4746 174.211 26.5469 174.156 26.6089C174.101 26.6743 174.015 26.7156 173.936 26.7156H173.939Z" fill="url(#paint15_linear_111_410)"/>
<path d="M157.786 17.7714L151.648 11.7879C151.348 11.4953 151.238 11.1166 151.272 10.7585C151.269 10.7585 151.262 10.7585 151.262 10.7585C151.252 10.7654 151.262 13.0548 151.262 13.0548C151.262 13.0548 151.269 13.0548 151.272 13.0548C151.238 13.4129 151.348 13.7882 151.648 14.0808L157.449 19.7338L157.786 17.7645V17.7714Z" fill="url(#paint16_linear_111_410)"/>
<path d="M175.199 26.5676C175.113 27.418 174.17 27.986 173.35 27.5557L165.763 23.5656L158.175 27.5557C157.362 27.9826 156.429 27.4317 156.326 26.5952V28.6195C156.233 29.6041 157.276 30.3271 158.175 29.852L165.584 25.9548L165.804 25.886L173.347 29.852C174.246 30.3236 175.285 29.6041 175.196 28.6195V26.5676H175.199Z" fill="url(#paint17_linear_111_410)"/>
<path d="M180.25 10.7585C180.288 11.1166 180.174 11.4953 179.874 11.7879L173.736 17.7714L174.073 19.7406L179.874 14.0877C180.171 13.7985 180.284 13.4232 180.25 13.0686L180.257 13.0617V10.7654H180.246L180.25 10.7585Z" fill="url(#paint18_linear_111_410)"/>
<path style="mix-blend-mode:screen" d="M179.262 10.793C179.238 10.7172 179.176 10.6208 179.035 10.6002L170.039 9.29194L166.014 1.14299C165.949 1.01216 165.842 0.984619 165.759 0.984619C165.677 0.984619 165.57 1.01216 165.505 1.14299L161.483 9.29194L152.488 10.6002C152.343 10.6208 152.284 10.7172 152.26 10.793C152.236 10.8687 152.229 10.9823 152.333 11.0822L154.46 13.1547C157.962 11.5091 162.651 11.2509 167.326 12.7829C169.822 13.6022 172.022 14.8347 173.808 16.3254L179.186 11.0822C179.289 10.9823 179.282 10.8687 179.258 10.793H179.262Z" fill="url(#paint19_radial_111_410)"/>
<path d="M179.189 11.0822C179.293 10.9823 179.286 10.8687 179.262 10.793C179.238 10.7172 179.176 10.6208 179.035 10.6002L170.039 9.29194L166.014 1.14299C165.949 1.01216 165.842 0.984619 165.759 0.984619C165.677 0.984619 165.57 1.01216 165.505 1.14299L161.483 9.29194L152.488 10.6002C152.343 10.6208 152.284 10.7172 152.26 10.793C152.236 10.8687 152.229 10.9823 152.333 11.0822L158.843 17.4271L157.307 26.3851C157.294 26.4746 157.311 26.5469 157.366 26.6089C157.421 26.6743 157.507 26.7156 157.586 26.7156C157.631 26.7156 157.672 26.7053 157.717 26.6812L165.763 22.4501L173.808 26.6812C173.853 26.7053 173.898 26.7156 173.939 26.7156C174.018 26.7156 174.105 26.6743 174.16 26.6089C174.215 26.5435 174.232 26.4712 174.218 26.3851L172.683 17.4271L179.193 11.0822H179.189ZM173.97 26.4505C173.97 26.4505 173.943 26.4712 173.939 26.4712L165.763 22.1747L157.586 26.4712C157.586 26.4712 157.566 26.4643 157.552 26.4264L159.111 17.3411L152.505 10.9066C152.505 10.9066 152.488 10.8894 152.494 10.8687C152.501 10.8481 152.505 10.8481 152.525 10.8446L161.649 9.51916L165.728 1.24971C165.739 1.2325 165.739 1.22905 165.759 1.22905C165.78 1.22905 165.783 1.22905 165.79 1.24971L169.87 9.51572L178.993 10.8412C179.014 10.8412 179.014 10.8412 179.024 10.8653C179.031 10.8859 179.028 10.8894 179.014 10.9031L172.414 17.3376L173.97 26.4471V26.4505Z" fill="url(#paint20_linear_111_410)"/>
</g>
<g clip-path="url(#clip3_111_410)">
<path d="M53.7051 0.705651L57.499 8.39328L65.9819 9.62578C67.0216 9.77726 67.4382 11.0545 66.6842 11.7878L60.5458 17.7713L61.9952 26.2198C62.1743 27.256 61.0864 28.0444 60.1568 27.5555L52.569 23.5654L44.9812 27.5555C44.0517 28.0444 42.9638 27.256 43.1428 26.2198L44.5922 17.7713L38.4538 11.7878C37.6998 11.0545 38.1164 9.77726 39.1561 9.62578L47.639 8.39328L51.4329 0.705651C51.8977 -0.237658 53.2404 -0.237658 53.7051 0.705651Z" fill="url(#paint21_linear_111_410)"/>
<path d="M60.7454 26.7156C60.7006 26.7156 60.6593 26.7053 60.6146 26.6812L52.5689 22.4501L44.5232 26.6812C44.4785 26.7053 44.4337 26.7156 44.3924 26.7156C44.3132 26.7156 44.2271 26.6743 44.1721 26.6089C44.117 26.5435 44.0998 26.4712 44.1135 26.3851L45.649 17.4271L39.1422 11.0822C39.0389 10.9823 39.0458 10.8687 39.0699 10.793C39.094 10.7172 39.156 10.6208 39.2972 10.6002L48.293 9.29194L52.3141 1.14299C52.3795 1.01216 52.4863 0.984619 52.5689 0.984619C52.6515 0.984619 52.7582 1.01216 52.8237 1.14299L56.8448 9.29194L65.8406 10.6002C65.9852 10.6208 66.0438 10.7172 66.0679 10.793C66.092 10.8687 66.0988 10.9823 65.9956 11.0822L59.4854 17.4271L61.0208 26.3851C61.0346 26.4746 61.0174 26.5469 60.9623 26.6089C60.9072 26.6743 60.8211 26.7156 60.742 26.7156H60.7454Z" fill="url(#paint22_linear_111_410)"/>
<path d="M44.5921 17.7714L38.4537 11.7879C38.1541 11.4953 38.044 11.1166 38.0784 10.7585C38.075 10.7585 38.0681 10.7585 38.0681 10.7585C38.0577 10.7654 38.0681 13.0548 38.0681 13.0548C38.0681 13.0548 38.075 13.0548 38.0784 13.0548C38.044 13.4129 38.1541 13.7882 38.4537 14.0808L44.2547 19.7338L44.5921 17.7645V17.7714Z" fill="url(#paint23_linear_111_410)"/>
<path d="M62.0053 26.5676C61.9193 27.418 60.976 27.986 60.1566 27.5557L52.5688 23.5656L44.981 27.5557C44.1685 27.9826 43.2355 27.4317 43.1323 26.5952V28.6195C43.0393 29.6041 44.0825 30.3271 44.981 29.852L52.3898 25.9548L52.6101 25.886L60.1531 29.852C61.0517 30.3236 62.0914 29.6041 62.0019 28.6195V26.5676H62.0053Z" fill="url(#paint24_linear_111_410)"/>
<path d="M67.0559 10.7585C67.0938 11.1166 66.9802 11.4953 66.6806 11.7879L60.5422 17.7714L60.8796 19.7406L66.6806 14.0877C66.9767 13.7985 67.0903 13.4232 67.0559 13.0686L67.0628 13.0617V10.7654H67.0524L67.0559 10.7585Z" fill="url(#paint25_linear_111_410)"/>
<path style="mix-blend-mode:screen" d="M66.0679 10.793C66.0438 10.7172 65.9818 10.6208 65.8407 10.6002L56.8448 9.29194L52.8202 1.14299C52.7548 1.01216 52.6481 0.984619 52.5655 0.984619C52.4829 0.984619 52.3761 1.01216 52.3107 1.14299L48.2896 9.29194L39.2937 10.6002C39.1491 10.6208 39.0906 10.7172 39.0665 10.793C39.0424 10.8687 39.0355 10.9823 39.1388 11.0822L41.2664 13.1547C44.7677 11.5091 49.4567 11.2509 54.1319 12.7829C56.6279 13.6022 58.8278 14.8347 60.6146 16.3254L65.9922 11.0822C66.0954 10.9823 66.0885 10.8687 66.0644 10.793H66.0679Z" fill="url(#paint26_radial_111_410)"/>
<path d="M65.9956 11.0822C66.0989 10.9823 66.092 10.8687 66.0679 10.793C66.0438 10.7172 65.9818 10.6208 65.8407 10.6002L56.8448 9.29194L52.8202 1.14299C52.7548 1.01216 52.6481 0.984619 52.5655 0.984619C52.4829 0.984619 52.3761 1.01216 52.3107 1.14299L48.2896 9.29194L39.2937 10.6002C39.1491 10.6208 39.0906 10.7172 39.0665 10.793C39.0424 10.8687 39.0355 10.9823 39.1388 11.0822L45.649 17.4271L44.1136 26.3851C44.0998 26.4746 44.117 26.5469 44.1721 26.6089C44.2272 26.6743 44.3132 26.7156 44.3924 26.7156C44.4372 26.7156 44.4785 26.7053 44.5233 26.6812L52.5689 22.4501L60.6146 26.6812C60.6594 26.7053 60.7041 26.7156 60.7454 26.7156C60.8246 26.7156 60.9107 26.6743 60.9658 26.6089C61.0208 26.5435 61.0381 26.4712 61.0243 26.3851L59.4888 17.4271L65.999 11.0822H65.9956ZM60.7764 26.4505C60.7764 26.4505 60.7489 26.4712 60.7454 26.4712L52.5689 22.1747L44.3924 26.4712C44.3924 26.4712 44.3718 26.4643 44.358 26.4264L45.9176 17.3411L39.3109 10.9066C39.3109 10.9066 39.2937 10.8894 39.3006 10.8687C39.3075 10.8481 39.3109 10.8481 39.3316 10.8446L48.4549 9.51916L52.5345 1.24971C52.5448 1.2325 52.5448 1.22905 52.5655 1.22905C52.5861 1.22905 52.5896 1.22905 52.5965 1.24971L56.6761 9.51572L65.7994 10.8412C65.82 10.8412 65.82 10.8412 65.8303 10.8653C65.8372 10.8859 65.8338 10.8894 65.82 10.9031L59.2203 17.3376L60.7764 26.4471V26.4505Z" fill="url(#paint27_linear_111_410)"/>
</g>
<g clip-path="url(#clip4_111_410)">
<path d="M15.6404 0.705651L19.4343 8.39328L27.9172 9.62578C28.9569 9.77726 29.3735 11.0545 28.6195 11.7878L22.4811 17.7713L23.9305 26.2198C24.1096 27.256 23.0217 28.0444 22.0921 27.5555L14.5043 23.5654L6.91654 27.5555C5.987 28.0444 4.89909 27.256 5.07812 26.2198L6.52751 17.7713L0.389109 11.7878C-0.36485 11.0545 0.0517212 9.77726 1.09143 9.62578L9.57433 8.39328L13.3682 0.705651C13.833 -0.237658 15.1757 -0.237658 15.6404 0.705651Z" fill="url(#paint28_linear_111_410)"/>
<path d="M22.6807 26.7156C22.6359 26.7156 22.5946 26.7053 22.5499 26.6812L14.5042 22.4501L6.45853 26.6812C6.41377 26.7053 6.36902 26.7156 6.3277 26.7156C6.24852 26.7156 6.16245 26.6743 6.10737 26.6089C6.05228 26.5435 6.03507 26.4712 6.04884 26.3851L7.5843 17.4271L1.07753 11.0822C0.974249 10.9823 0.981135 10.8687 1.00523 10.793C1.02933 10.7172 1.0913 10.6208 1.23245 10.6002L10.2283 9.29194L14.2494 1.14299C14.3148 1.01216 14.4216 0.984619 14.5042 0.984619C14.5868 0.984619 14.6936 1.01216 14.759 1.14299L18.7801 9.29194L27.7759 10.6002C27.9205 10.6208 27.9791 10.7172 28.0032 10.793C28.0273 10.8687 28.0341 10.9823 27.9309 11.0822L21.4207 17.4271L22.9561 26.3851C22.9699 26.4746 22.9527 26.5469 22.8976 26.6089C22.8425 26.6743 22.7564 26.7156 22.6773 26.7156H22.6807Z" fill="url(#paint29_linear_111_410)"/>
<path d="M6.52735 17.7714L0.388956 11.7879C0.089438 11.4953 -0.0207295 11.1166 0.0136978 10.7585C0.0102551 10.7585 0.00336961 10.7585 0.00336961 10.7585C-0.0069586 10.7654 0.00336961 13.0548 0.00336961 13.0548C0.00336961 13.0548 0.0102551 13.0548 0.0136978 13.0548C-0.0207295 13.4129 0.089438 13.7882 0.388956 14.0808L6.18997 19.7338L6.52735 17.7645V17.7714Z" fill="url(#paint30_linear_111_410)"/>
<path d="M23.9406 26.5676C23.8546 27.418 22.9113 27.986 22.0919 27.5557L14.5041 23.5656L6.91631 27.5557C6.10383 27.9826 5.17084 27.4317 5.06756 26.5952V28.6195C4.97461 29.6041 6.01776 30.3271 6.91631 29.852L14.3251 25.9548L14.5454 25.886L22.0885 29.852C22.987 30.3236 24.0267 29.6041 23.9372 28.6195V26.5676H23.9406Z" fill="url(#paint31_linear_111_410)"/>
<path d="M28.9912 10.7585C29.0291 11.1166 28.9155 11.4953 28.6159 11.7879L22.4775 17.7714L22.8149 19.7406L28.6159 14.0877C28.912 13.7985 29.0256 13.4232 28.9912 13.0686L28.9981 13.0617V10.7654H28.9878L28.9912 10.7585Z" fill="url(#paint32_linear_111_410)"/>
<path style="mix-blend-mode:screen" d="M28.0032 10.793C27.9791 10.7172 27.9171 10.6208 27.776 10.6002L18.7801 9.29194L14.7555 1.14299C14.6901 1.01216 14.5834 0.984619 14.5008 0.984619C14.4182 0.984619 14.3114 1.01216 14.246 1.14299L10.2249 9.29194L1.22904 10.6002C1.08444 10.6208 1.02591 10.7172 1.00182 10.793C0.977717 10.8687 0.970831 10.9823 1.07411 11.0822L3.20172 13.1547C6.70299 11.5091 11.392 11.2509 16.0672 12.7829C18.5632 13.6022 20.7631 14.8347 22.5499 16.3254L27.9275 11.0822C28.0307 10.9823 28.0239 10.8687 27.9998 10.793H28.0032Z" fill="url(#paint33_radial_111_410)"/>
<path d="M27.9309 11.0822C28.0342 10.9823 28.0273 10.8687 28.0032 10.793C27.9791 10.7172 27.9171 10.6208 27.776 10.6002L18.7801 9.29194L14.7555 1.14299C14.6901 1.01216 14.5834 0.984619 14.5008 0.984619C14.4182 0.984619 14.3114 1.01216 14.246 1.14299L10.2249 9.29194L1.22904 10.6002C1.08444 10.6208 1.02591 10.7172 1.00182 10.793C0.977717 10.8687 0.970831 10.9823 1.07411 11.0822L7.58433 17.4271L6.04887 26.3851C6.0351 26.4746 6.05231 26.5469 6.10739 26.6089C6.16248 26.6743 6.24855 26.7156 6.32773 26.7156C6.37248 26.7156 6.4138 26.7053 6.45855 26.6812L14.5042 22.4501L22.5499 26.6812C22.5947 26.7053 22.6394 26.7156 22.6807 26.7156C22.7599 26.7156 22.846 26.6743 22.9011 26.6089C22.9561 26.5435 22.9734 26.4712 22.9596 26.3851L21.4241 17.4271L27.9343 11.0822H27.9309ZM22.7117 26.4505C22.7117 26.4505 22.6842 26.4712 22.6807 26.4712L14.5042 22.1747L6.32773 26.4712C6.32773 26.4712 6.30707 26.4643 6.2933 26.4264L7.85286 17.3411L1.24625 10.9066C1.24625 10.9066 1.22904 10.8894 1.23592 10.8687C1.24281 10.8481 1.24625 10.8481 1.26691 10.8446L10.3902 9.51916L14.4698 1.24971C14.4801 1.2325 14.4801 1.22905 14.5008 1.22905C14.5214 1.22905 14.5249 1.22905 14.5318 1.24971L18.6114 9.51572L27.7347 10.8412C27.7553 10.8412 27.7553 10.8412 27.7656 10.8653C27.7725 10.8859 27.7691 10.8894 27.7553 10.9031L21.1556 17.3376L22.7117 26.4471V26.4505Z" fill="url(#paint34_linear_111_410)"/>
</g>
<defs>
<linearGradient id="paint0_linear_111_410" x1="88.7572" y1="1.15665" x2="93.9557" y2="28.1339" gradientUnits="userSpaceOnUse">
<stop stop-color="#FDD733"/>
<stop offset="1" stop-color="#F9AB21"/>
</linearGradient>
<linearGradient id="paint1_linear_111_410" x1="89.9138" y1="3.46683" x2="92.0449" y2="25.459" gradientUnits="userSpaceOnUse">
<stop stop-color="#FDE265"/>
<stop offset="1" stop-color="#FDD733"/>
</linearGradient>
<linearGradient id="paint2_linear_111_410" x1="79.4341" y1="8.22125" x2="79.3102" y2="26.9738" gradientUnits="userSpaceOnUse">
<stop stop-color="#EA8D07"/>
<stop offset="1" stop-color="#B26500"/>
</linearGradient>
<linearGradient id="paint3_linear_111_410" x1="90.7606" y1="8.29702" x2="90.6401" y2="27.0496" gradientUnits="userSpaceOnUse">
<stop stop-color="#EA8D07"/>
<stop offset="1" stop-color="#B26500"/>
</linearGradient>
<linearGradient id="paint4_linear_111_410" x1="101.915" y1="8.36929" x2="101.791" y2="27.1219" gradientUnits="userSpaceOnUse">
<stop stop-color="#EA8D07"/>
<stop offset="1" stop-color="#B26500"/>
</linearGradient>
<radialGradient id="paint5_radial_111_410" cx="0" cy="0" r="1" gradientUnits="userSpaceOnUse" gradientTransform="translate(92.4921 19.732) scale(15.4078)">
<stop stop-color="#FCED97"/>
<stop offset="1"/>
</radialGradient>
<linearGradient id="paint6_linear_111_410" x1="90.4785" y1="1.49414" x2="90.8881" y2="26.6915" gradientUnits="userSpaceOnUse">
<stop stop-color="#FDD733"/>
<stop offset="1" stop-color="#FBC12A"/>
</linearGradient>
<linearGradient id="paint7_linear_111_410" x1="126.822" y1="1.15665" x2="132.02" y2="28.1339" gradientUnits="userSpaceOnUse">
<stop stop-color="#FDD733"/>
<stop offset="1" stop-color="#F9AB21"/>
</linearGradient>
<linearGradient id="paint8_linear_111_410" x1="127.979" y1="3.46683" x2="130.11" y2="25.459" gradientUnits="userSpaceOnUse">
<stop stop-color="#FDE265"/>
<stop offset="1" stop-color="#FDD733"/>
</linearGradient>
<linearGradient id="paint9_linear_111_410" x1="117.499" y1="8.22125" x2="117.375" y2="26.9738" gradientUnits="userSpaceOnUse">
<stop stop-color="#EA8D07"/>
<stop offset="1" stop-color="#B26500"/>
</linearGradient>
<linearGradient id="paint10_linear_111_410" x1="128.825" y1="8.29702" x2="128.705" y2="27.0496" gradientUnits="userSpaceOnUse">
<stop stop-color="#EA8D07"/>
<stop offset="1" stop-color="#B26500"/>
</linearGradient>
<linearGradient id="paint11_linear_111_410" x1="139.98" y1="8.36929" x2="139.856" y2="27.1219" gradientUnits="userSpaceOnUse">
<stop stop-color="#EA8D07"/>
<stop offset="1" stop-color="#B26500"/>
</linearGradient>
<radialGradient id="paint12_radial_111_410" cx="0" cy="0" r="1" gradientUnits="userSpaceOnUse" gradientTransform="translate(130.557 19.732) scale(15.4078)">
<stop stop-color="#FCED97"/>
<stop offset="1"/>
</radialGradient>
<linearGradient id="paint13_linear_111_410" x1="128.543" y1="1.49414" x2="128.953" y2="26.6915" gradientUnits="userSpaceOnUse">
<stop stop-color="#FDD733"/>
<stop offset="1" stop-color="#FBC12A"/>
</linearGradient>
<linearGradient id="paint14_linear_111_410" x1="163.887" y1="1.15665" x2="169.085" y2="28.1339" gradientUnits="userSpaceOnUse">
<stop stop-color="#FDD733"/>
<stop offset="1" stop-color="#F9AB21"/>
</linearGradient>
<linearGradient id="paint15_linear_111_410" x1="165.043" y1="3.46683" x2="167.174" y2="25.459" gradientUnits="userSpaceOnUse">
<stop stop-color="#FDE265"/>
<stop offset="1" stop-color="#FDD733"/>
</linearGradient>
<linearGradient id="paint16_linear_111_410" x1="154.563" y1="8.22125" x2="154.44" y2="26.9738" gradientUnits="userSpaceOnUse">
<stop stop-color="#EA8D07"/>
<stop offset="1" stop-color="#B26500"/>
</linearGradient>
<linearGradient id="paint17_linear_111_410" x1="165.89" y1="8.29702" x2="165.77" y2="27.0496" gradientUnits="userSpaceOnUse">
<stop stop-color="#EA8D07"/>
<stop offset="1" stop-color="#B26500"/>
</linearGradient>
<linearGradient id="paint18_linear_111_410" x1="177.045" y1="8.36929" x2="176.921" y2="27.1219" gradientUnits="userSpaceOnUse">
<stop stop-color="#EA8D07"/>
<stop offset="1" stop-color="#B26500"/>
</linearGradient>
<radialGradient id="paint19_radial_111_410" cx="0" cy="0" r="1" gradientUnits="userSpaceOnUse" gradientTransform="translate(167.622 19.732) scale(15.4078)">
<stop stop-color="#FCED97"/>
<stop offset="1"/>
</radialGradient>
<linearGradient id="paint20_linear_111_410" x1="165.608" y1="1.49414" x2="166.018" y2="26.6915" gradientUnits="userSpaceOnUse">
<stop stop-color="#FDD733"/>
<stop offset="1" stop-color="#FBC12A"/>
</linearGradient>
<linearGradient id="paint21_linear_111_410" x1="50.6927" y1="1.15665" x2="55.8913" y2="28.1339" gradientUnits="userSpaceOnUse">
<stop stop-color="#FDD733"/>
<stop offset="1" stop-color="#F9AB21"/>
</linearGradient>
<linearGradient id="paint22_linear_111_410" x1="51.8494" y1="3.46683" x2="53.9804" y2="25.459" gradientUnits="userSpaceOnUse">
<stop stop-color="#FDE265"/>
<stop offset="1" stop-color="#FDD733"/>
</linearGradient>
<linearGradient id="paint23_linear_111_410" x1="41.3697" y1="8.22125" x2="41.2457" y2="26.9738" gradientUnits="userSpaceOnUse">
<stop stop-color="#EA8D07"/>
<stop offset="1" stop-color="#B26500"/>
</linearGradient>
<linearGradient id="paint24_linear_111_410" x1="52.6962" y1="8.29702" x2="52.5757" y2="27.0496" gradientUnits="userSpaceOnUse">
<stop stop-color="#EA8D07"/>
<stop offset="1" stop-color="#B26500"/>
</linearGradient>
<linearGradient id="paint25_linear_111_410" x1="63.8507" y1="8.36929" x2="63.7268" y2="27.1219" gradientUnits="userSpaceOnUse">
<stop stop-color="#EA8D07"/>
<stop offset="1" stop-color="#B26500"/>
</linearGradient>
<radialGradient id="paint26_radial_111_410" cx="0" cy="0" r="1" gradientUnits="userSpaceOnUse" gradientTransform="translate(54.4277 19.732) scale(15.4078)">
<stop stop-color="#FCED97"/>
<stop offset="1"/>
</radialGradient>
<linearGradient id="paint27_linear_111_410" x1="52.414" y1="1.49414" x2="52.8237" y2="26.6915" gradientUnits="userSpaceOnUse">
<stop stop-color="#FDD733"/>
<stop offset="1" stop-color="#FBC12A"/>
</linearGradient>
<linearGradient id="paint28_linear_111_410" x1="12.628" y1="1.15665" x2="17.8266" y2="28.1339" gradientUnits="userSpaceOnUse">
<stop stop-color="#FDD733"/>
<stop offset="1" stop-color="#F9AB21"/>
</linearGradient>
<linearGradient id="paint29_linear_111_410" x1="13.7847" y1="3.46683" x2="15.9157" y2="25.459" gradientUnits="userSpaceOnUse">
<stop stop-color="#FDE265"/>
<stop offset="1" stop-color="#FDD733"/>
</linearGradient>
<linearGradient id="paint30_linear_111_410" x1="3.30495" y1="8.22125" x2="3.18102" y2="26.9738" gradientUnits="userSpaceOnUse">
<stop stop-color="#EA8D07"/>
<stop offset="1" stop-color="#B26500"/>
</linearGradient>
<linearGradient id="paint31_linear_111_410" x1="14.6315" y1="8.29702" x2="14.511" y2="27.0496" gradientUnits="userSpaceOnUse">
<stop stop-color="#EA8D07"/>
<stop offset="1" stop-color="#B26500"/>
</linearGradient>
<linearGradient id="paint32_linear_111_410" x1="25.786" y1="8.36929" x2="25.6621" y2="27.1219" gradientUnits="userSpaceOnUse">
<stop stop-color="#EA8D07"/>
<stop offset="1" stop-color="#B26500"/>
</linearGradient>
<radialGradient id="paint33_radial_111_410" cx="0" cy="0" r="1" gradientUnits="userSpaceOnUse" gradientTransform="translate(16.363 19.732) scale(15.4078)">
<stop stop-color="#FCED97"/>
<stop offset="1"/>
</radialGradient>
<linearGradient id="paint34_linear_111_410" x1="14.3493" y1="1.49414" x2="14.759" y2="26.6915" gradientUnits="userSpaceOnUse">
<stop stop-color="#FDD733"/>
<stop offset="1" stop-color="#FBC12A"/>
</linearGradient>
<clipPath id="clip0_111_410">
<rect width="29.0016" height="30" fill="white" transform="translate(76.1292)"/>
</clipPath>
<clipPath id="clip1_111_410">
<rect width="29.0016" height="30" fill="white" transform="translate(114.194)"/>
</clipPath>
<clipPath id="clip2_111_410">
<rect width="29.0016" height="30" fill="white" transform="translate(151.259)"/>
</clipPath>
<clipPath id="clip3_111_410">
<rect width="29.0016" height="30" fill="white" transform="translate(38.0647)"/>
</clipPath>
<clipPath id="clip4_111_410">
<rect width="29.0016" height="30" fill="white"/>
</clipPath>
</defs>
</svg>
