<svg width="175" height="58" viewBox="0 0 175 58" fill="none" xmlns="http://www.w3.org/2000/svg">
<mask id="mask0_111_375" style="mask-type:luminance" maskUnits="userSpaceOnUse" x="0" y="0" width="55" height="58">
<path d="M27.3824 57.3953C23.4402 57.3953 19.6222 56.5521 15.9412 54.8174C13.175 53.514 10.7019 51.7793 8.52198 49.623C4.64982 45.7868 2.12576 41.191 0.956143 35.8422C0.656568 34.4776 0.47483 33.097 0.395156 31.7002L0.356934 31.491C0.356934 30.5449 0.356934 29.5955 0.356934 28.6493L0.395156 28.4658C0.446148 27.9219 0.48127 27.3748 0.541822 26.8342C0.850958 24.1147 1.52661 21.4982 2.59106 18.9815C2.74722 18.6178 2.90966 18.2573 3.0722 17.8905C2.32645 17.353 1.59988 16.8284 0.88281 16.3103L0.908292 16.2298C2.50496 13.3076 4.43945 10.646 6.84242 8.34172C11.5751 3.80389 17.1905 1.24212 23.6983 0.688572L24.4823 0.604893C25.4384 0.604893 26.3944 0.604893 27.3473 0.604893L28.1824 0.695004C34.4671 1.23246 40.0379 3.53034 44.8279 7.66909C49.347 11.5729 52.2853 16.4808 53.7067 22.3124C54.2389 24.4912 54.4812 26.7086 54.5513 28.9518C54.6246 31.2851 54.4493 33.5862 53.9617 35.8615C53.0439 40.1258 51.2113 43.9459 48.4865 47.3284C46.0293 50.3697 43.0527 52.7705 39.5757 54.5277C36.9242 55.8698 34.1293 56.7516 31.1877 57.141C29.9065 57.3084 28.6381 57.3953 27.3824 57.3953ZM17.4359 25.653C15.5938 26.7247 13.7773 28.7394 12.8244 30.7541C11.3457 33.879 11.1066 37.1328 11.9958 40.4444C13.363 45.5229 16.518 49.0791 21.2921 51.1485C23.5294 52.1172 25.8526 52.5774 28.2397 52.5774C28.995 52.5774 29.7567 52.5324 30.5248 52.4423C33.0457 52.143 35.455 51.4736 37.7305 50.3375C42.479 47.9656 45.9115 44.2806 48.0595 39.4274C50.08 34.8671 50.6154 30.075 49.7135 25.1542C48.7797 20.0789 46.4724 15.7245 42.7532 12.1747C38.1576 7.78817 32.6409 5.58362 26.3371 5.37764C26.1204 5.37121 25.9004 5.36478 25.6837 5.36478C23.8927 5.36478 22.1208 5.60614 20.3775 6.05027C15.5556 7.27645 11.5464 9.79639 8.4646 13.7678C8.09172 14.2473 7.75704 14.759 7.4001 15.2579L7.85586 15.7052C9.2868 14.6593 10.7783 13.7453 12.3654 12.9954C15.4695 11.5246 18.6756 10.7201 21.9965 10.7201C23.1406 10.7201 24.2943 10.8166 25.4607 11.0129C29.8109 11.7403 33.5906 13.6552 36.6756 16.8381C41.0131 21.3083 42.9316 26.6539 42.103 32.9103C41.7907 35.3048 41.0417 37.564 39.8052 39.643C37.058 44.2774 32.3764 46.955 27.2996 46.955C26.3754 46.955 25.4384 46.8649 24.495 46.6847C22.0028 46.202 19.8038 45.1013 18.0223 43.2604C15.4345 40.5828 14.3414 37.3194 14.6888 33.6216C14.9533 30.8345 16.0209 28.3403 17.8438 26.2034L17.882 26.139L17.4359 25.653ZM26.5315 27.0916C26.1778 27.0916 25.8208 27.1238 25.4638 27.1914C21.3431 27.9573 18.6948 31.9255 19.5361 36.0739C20.2213 39.4467 23.2808 41.9731 26.694 41.9731C26.6972 41.9731 26.7004 41.9731 26.7036 41.9731C28.756 41.9699 30.5216 41.2393 31.9876 39.7846C32.2936 39.4789 32.5549 39.1313 32.8449 38.7902C32.1469 38.2978 31.5 37.844 30.834 37.3741L30.9868 37.2003C32.1692 35.8036 32.6951 34.1944 32.4816 32.3696C32.131 29.3348 29.4795 27.0916 26.5315 27.0916ZM21.9041 15.4317C21.1679 15.4317 20.4316 15.4799 19.6986 15.5829C15.7819 16.1236 12.4228 17.8454 9.66924 20.7322C5.75883 24.8291 3.97095 31.1724 5.75566 36.9332C5.89907 37.3967 6.07436 37.8504 6.23689 38.3203L6.73729 38.1465L6.89981 37.8794C6.75958 36.5728 6.85195 35.2661 7.03042 33.9724C7.35231 31.6552 8.08215 29.4699 9.24539 27.4392C12.1519 22.3671 17.2766 19.5608 22.6976 19.5608C23.7875 19.5608 24.8902 19.6734 25.9897 19.9051C29.4571 20.6357 32.3924 22.3543 34.8973 24.842C35.5506 25.4953 36.1211 26.2323 36.7362 26.9243L36.9561 27.0401L37.4915 26.8535L37.4788 26.7537C37.0549 25.1703 36.3697 23.7124 35.4295 22.3736C32.3477 17.9774 27.1721 15.4317 21.9041 15.4317Z" fill="white"/>
</mask>
<g mask="url(#mask0_111_375)">
<path d="M0.356934 57.3953H54.6278V0.604893H0.356934V57.3953Z" fill="white"/>
</g>
<path d="M168.798 39.5077C167.278 39.5077 165.789 39.5077 164.266 39.5077C164.266 33.9561 164.266 28.3981 164.266 22.824C162.296 22.824 160.359 22.824 158.399 22.824C158.399 21.3757 158.399 19.9436 158.399 18.476H158.654C163.896 18.476 169.139 18.476 174.381 18.476L174.643 18.5018C174.643 19.9403 174.643 21.3757 174.643 22.8143C172.705 22.8143 170.764 22.8143 168.798 22.8143C168.798 28.3884 168.798 33.94 168.798 39.5077Z" fill="white"/>
<path d="M129.719 39.91C127.753 39.91 125.847 39.3983 124.056 38.2977C121.136 36.5051 119.581 33.8178 119.345 30.3774C119.192 28.1374 119.619 26.0101 120.792 24.0663C121.315 23.2038 121.975 22.4539 122.771 21.7781L122.022 21.0732C122.335 20.7997 122.606 20.539 122.905 20.3105C124.295 19.2485 125.875 18.637 127.577 18.328C128.377 18.1832 129.177 18.1027 129.971 18.1027C131.15 18.1027 132.316 18.2797 133.467 18.682C137.068 19.9436 139.305 22.5022 140.21 26.2129C140.864 28.8873 140.634 31.5231 139.442 34.0205C138.056 36.9267 135.784 38.7901 132.686 39.5399C131.685 39.7845 130.694 39.91 129.719 39.91ZM129.859 22.441C128.919 22.441 127.988 22.647 127.074 23.0396C126.398 23.3325 125.808 23.7541 125.289 24.3173L125.965 24.9545C125.515 25.5113 125.05 25.9876 124.703 26.5379C123.966 27.6997 123.807 29.0064 123.966 30.3549C124.139 31.8256 124.741 33.0936 125.853 34.0817C127.016 35.1147 128.387 35.5396 129.885 35.5396C129.999 35.5396 130.114 35.5396 130.232 35.5331C132.711 35.4301 134.668 33.9948 135.494 31.6583C136.099 29.9461 136.118 28.2082 135.545 26.4897C134.917 24.6198 133.69 23.3035 131.79 22.7307C131.143 22.5344 130.5 22.441 129.859 22.441Z" fill="white"/>
<path d="M84.9962 39.5304C83.7118 39.5304 82.4275 39.524 81.1431 39.524H80.8308C80.8308 32.5113 80.8308 25.5082 80.8308 18.4762H81.0921C82.4466 18.4762 83.8011 18.473 85.1555 18.473C86.0574 18.473 86.9593 18.473 87.8613 18.4794C89.3846 18.4891 90.8602 18.7401 92.1828 19.5608C93.8591 20.5971 94.5794 22.1386 94.4041 24.0954C94.3563 24.6328 94.2352 25.1767 94.0567 25.6852C93.6966 26.7054 92.9795 27.4328 92.0234 27.9187L91.7653 28.0571C92.17 28.2663 92.5652 28.4433 92.9349 28.6654C94.5921 29.6534 95.3698 31.1499 95.4144 33.0648C95.4526 34.7061 94.9809 36.1576 93.8528 37.358C92.8807 38.3943 91.6601 38.9994 90.2929 39.2729C89.5376 39.421 88.7568 39.5014 87.9856 39.5143C86.988 39.5272 85.9937 39.5304 84.9962 39.5304ZM85.4137 30.2166L85.3659 30.2488C85.3659 31.9802 85.3659 33.7149 85.3659 35.4528C85.9937 35.4528 86.612 35.4624 87.2239 35.4624C87.6382 35.4624 88.0525 35.4592 88.4668 35.4431C89.0946 35.4142 89.697 35.2082 90.1591 34.7415C90.9717 33.9177 91.0259 32.9071 90.7232 31.874C90.4268 30.8474 89.6173 30.3679 88.6325 30.2842C87.9856 30.2295 87.3354 30.2198 86.6853 30.2198C86.5833 30.2198 86.4781 30.2198 86.3761 30.223C86.2837 30.223 86.1913 30.223 86.0957 30.223C85.8694 30.223 85.6399 30.2198 85.4137 30.2166ZM85.4041 22.528L85.3659 22.557C85.3659 24.0085 85.3659 25.4599 85.3659 26.9275C85.9427 26.9275 86.5132 26.9468 87.0741 26.9468C87.4278 26.9468 87.7784 26.9404 88.129 26.9146C89.2858 26.8374 90.0411 25.9845 90.073 24.8388C90.1081 23.5933 89.4324 22.6986 88.2341 22.5763C87.7911 22.5313 87.3418 22.5184 86.8924 22.5184C86.6821 22.5184 86.4717 22.5216 86.2614 22.5248C86.0415 22.528 85.8248 22.528 85.6081 22.528C85.5411 22.528 85.471 22.528 85.4041 22.528Z" fill="white"/>
<path d="M69.9633 39.7332C68.9403 39.7332 67.9173 39.5755 66.8974 39.2568C64.0387 38.3654 62.3369 36.3539 61.6262 33.451C61.4158 32.6078 61.3394 31.7453 61.3394 30.8764C61.3394 26.7988 61.3394 22.7244 61.3394 18.6468V18.3088C62.8691 18.3088 64.3638 18.3088 65.8872 18.3088V18.6307C65.8872 22.6343 65.8872 26.6378 65.8872 30.6414C65.8872 31.3173 65.9636 31.9802 66.1549 32.6239C66.6552 34.3039 67.8758 35.2661 69.6287 35.3562C69.7466 35.3627 69.8645 35.3659 69.9792 35.3659C70.9895 35.3659 71.9296 35.1245 72.7136 34.394C73.3988 33.76 73.7494 32.9393 73.8992 32.0349C73.9852 31.4975 74.0362 30.9472 74.0362 30.4033C74.049 26.4834 74.0426 22.5602 74.0426 18.6403V18.3121C75.5596 18.3121 77.0511 18.3121 78.5745 18.3121V18.576C78.5745 22.7211 78.5777 26.8631 78.5745 31.0051C78.5713 32.5241 78.294 33.9885 77.6152 35.3627C76.6878 37.239 75.2313 38.5166 73.2714 39.1796C72.175 39.5497 71.0692 39.7332 69.9633 39.7332Z" fill="white"/>
<path d="M110.635 39.8907C109.093 39.8907 107.601 39.5271 106.186 38.7064C104.889 37.9533 103.975 36.843 103.385 35.4559L103.43 35.1437C104.571 34.3005 105.705 33.4445 106.843 32.5948L106.91 32.5659L107.299 33.3511C108.165 34.7833 109.396 35.5975 111.075 35.5975C111.101 35.5975 111.126 35.5975 111.152 35.5975C111.789 35.5879 112.388 35.4109 112.873 34.9667C113.841 34.0753 113.739 32.5884 112.662 31.7484C111.999 31.2335 111.241 30.9052 110.473 30.6059C109.38 30.1843 108.271 29.8013 107.254 29.1963C106.212 28.5784 105.3 27.8221 104.743 26.715C103.592 24.43 103.898 20.8898 107.047 19.0876C108.264 18.3892 109.574 18.1156 110.941 18.1156C111.107 18.1156 111.273 18.1189 111.442 18.1285C112.857 18.1929 114.208 18.5018 115.429 19.2678C116.477 19.9211 117.245 20.8222 117.771 21.9712C116.569 22.8144 115.378 23.6479 114.17 24.4976L113.854 23.9086C113.105 22.5666 111.948 22.0613 110.849 22.0613C110.463 22.0613 110.087 22.1224 109.74 22.2319C109.051 22.4443 108.542 22.8755 108.408 23.6415C108.312 24.1982 108.491 24.6713 108.873 25.0736C109.37 25.595 110.001 25.92 110.651 26.1904C111.69 26.6216 112.745 27.0046 113.787 27.4262C114.552 27.7352 115.279 28.1278 115.945 28.6299C117.267 29.6211 117.959 30.9535 118.048 32.6141C118.15 34.4261 117.752 36.0867 116.563 37.4899C115.534 38.7032 114.198 39.408 112.659 39.6944C111.977 39.8232 111.301 39.8907 110.635 39.8907Z" fill="white"/>
<path d="M146.922 39.5046C145.396 39.5046 143.898 39.5046 142.381 39.5046C142.381 32.5016 142.381 25.5018 142.381 18.489C147.133 18.489 151.881 18.489 156.646 18.489C156.646 19.9405 156.646 21.3598 156.646 22.8048C153.405 22.8048 150.176 22.8048 146.929 22.8048C146.929 24.4365 146.929 26.0392 146.929 27.6677C149.873 27.6677 152.805 27.6677 155.753 27.6677C155.753 28.8391 155.753 29.9881 155.753 31.1628C152.815 31.1628 149.883 31.1628 146.922 31.1628C146.922 33.9563 146.922 36.7208 146.922 39.5046Z" fill="white"/>
<path d="M101.68 39.511C100.173 39.511 98.681 39.511 97.1736 39.511C97.1736 32.5015 97.1736 25.5017 97.1736 18.489C98.6715 18.489 100.166 18.489 101.68 18.489C101.68 25.4984 101.68 32.5015 101.68 39.511Z" fill="white"/>
</svg>
